<svg width="92" height="32" viewBox="0 0 92 32" fill="none" xmlns="http://www.w3.org/2000/svg">
<g filter="url(#filter0_d)">
<path d="M25.2324 6.50391H23.2988C23.2676 6.30469 23.1973 6.11914 23.0879 5.94727C22.9824 5.77539 22.8516 5.62695 22.6953 5.50195C22.5391 5.37695 22.3652 5.28125 22.1738 5.21484C21.9824 5.14453 21.7852 5.10938 21.582 5.10938C21.3359 5.10938 21.1367 5.15625 20.9844 5.25C20.832 5.34375 20.7559 5.47461 20.7559 5.64258C20.7559 5.80273 20.8242 5.93359 20.9609 6.03516C21.0977 6.13281 21.2773 6.21875 21.5 6.29297C21.7227 6.36328 21.9766 6.43164 22.2617 6.49805C22.5469 6.56445 22.8359 6.64648 23.1289 6.74414C23.4258 6.8418 23.7168 6.96094 24.002 7.10156C24.2871 7.23828 24.541 7.41602 24.7637 7.63477C24.9863 7.84961 25.166 8.11328 25.3027 8.42578C25.4395 8.73828 25.5078 9.11328 25.5078 9.55078C25.5078 10.0156 25.4082 10.4121 25.209 10.7402C25.0098 11.0684 24.7422 11.3379 24.4062 11.5488C24.0703 11.7598 23.6836 11.9141 23.2461 12.0117C22.8086 12.1094 22.3555 12.1582 21.8867 12.1582C21.4297 12.1582 20.9922 12.1055 20.5742 12C20.1602 11.8945 19.7363 11.7227 19.3027 11.4844V12H17.3691V8.80664H19.3027C19.416 9.26367 19.6426 9.625 19.9824 9.89062C20.3223 10.1523 20.7051 10.2832 21.1309 10.2832C21.416 10.2832 21.6289 10.2305 21.7695 10.125C21.9102 10.0156 21.9805 9.89258 21.9805 9.75586C21.9805 9.54102 21.8633 9.375 21.6289 9.25781C21.3984 9.14062 21.1113 9.03711 20.7676 8.94727C20.4238 8.85352 20.0469 8.75 19.6367 8.63672C19.2305 8.51953 18.8555 8.35352 18.5117 8.13867C18.168 7.91992 17.8789 7.63281 17.6445 7.27734C17.4141 6.92188 17.2988 6.45703 17.2988 5.88281C17.2988 5.45703 17.3906 5.08008 17.5742 4.75195C17.7578 4.42383 18.0039 4.14844 18.3125 3.92578C18.6211 3.69922 18.9766 3.5293 19.3789 3.41602C19.7852 3.29883 20.2129 3.24023 20.6621 3.24023C21.2832 3.24023 21.8164 3.3125 22.2617 3.45703C22.707 3.60156 23.0527 3.75391 23.2988 3.91406V3.36914H25.2324V6.50391ZM26.8913 7.69336C26.8913 6.93945 27.0144 6.2793 27.2605 5.71289C27.5105 5.14258 27.862 4.66602 28.3152 4.2832C28.7683 3.90039 29.3054 3.61328 29.9265 3.42188C30.5515 3.23047 31.2409 3.13477 31.9948 3.13477C32.7448 3.13477 33.4323 3.23047 34.0573 3.42188C34.6823 3.61328 35.2195 3.90039 35.6687 4.2832C36.1218 4.66602 36.4714 5.14258 36.7175 5.71289C36.9675 6.2793 37.0925 6.93945 37.0925 7.69336C37.0925 8.44336 36.9675 9.10352 36.7175 9.67383C36.4714 10.2402 36.1218 10.7168 35.6687 11.1035C35.2195 11.4863 34.6823 11.7734 34.0573 11.9648C33.4323 12.1562 32.7448 12.252 31.9948 12.252C31.2409 12.252 30.5515 12.1562 29.9265 11.9648C29.3054 11.7734 28.7683 11.4863 28.3152 11.1035C27.862 10.7168 27.5105 10.2402 27.2605 9.67383C27.0144 9.10352 26.8913 8.44336 26.8913 7.69336ZM30.8288 7.69336C30.8288 8.16602 30.8464 8.5625 30.8816 8.88281C30.9167 9.19922 30.9773 9.45703 31.0632 9.65625C31.153 9.85156 31.2722 9.99414 31.4206 10.084C31.5691 10.1699 31.7605 10.2129 31.9948 10.2129C32.2175 10.2129 32.405 10.1699 32.5573 10.084C32.7097 9.99414 32.8288 9.85156 32.9148 9.65625C33.0046 9.45703 33.0671 9.19922 33.1023 8.88281C33.1374 8.5625 33.155 8.16602 33.155 7.69336C33.155 7.22852 33.1374 6.83398 33.1023 6.50977C33.0671 6.18555 33.0046 5.92578 32.9148 5.73047C32.8288 5.53516 32.7097 5.39453 32.5573 5.30859C32.405 5.21875 32.2175 5.17383 31.9948 5.17383C31.7605 5.17383 31.5691 5.21875 31.4206 5.30859C31.2722 5.39453 31.153 5.53516 31.0632 5.73047C30.9773 5.92578 30.9167 6.18555 30.8816 6.50977C30.8464 6.83398 30.8288 7.22852 30.8288 7.69336ZM42.8588 3.13477C43.1205 3.13477 43.3647 3.15625 43.5912 3.19922C43.8217 3.24219 44.0307 3.29883 44.2182 3.36914C44.4057 3.43555 44.5678 3.50781 44.7045 3.58594C44.8412 3.66016 44.9526 3.72852 45.0385 3.79102V3.36914H46.9721V6.5625H44.9213C44.9213 6.30078 44.8881 6.08203 44.8217 5.90625C44.7592 5.73047 44.6733 5.58789 44.5639 5.47852C44.4584 5.36914 44.3334 5.29102 44.1889 5.24414C44.0444 5.19727 43.8881 5.17383 43.7202 5.17383C43.4897 5.17383 43.2924 5.21875 43.1284 5.30859C42.9643 5.39453 42.8295 5.53516 42.7241 5.73047C42.6225 5.92578 42.5444 6.18555 42.4897 6.50977C42.4389 6.83398 42.4135 7.22852 42.4135 7.69336C42.4135 8.16602 42.4409 8.5625 42.4955 8.88281C42.5541 9.19922 42.6401 9.45703 42.7534 9.65625C42.8705 9.85156 43.019 9.99414 43.1987 10.084C43.3784 10.1699 43.5932 10.2129 43.8432 10.2129C44.0112 10.2129 44.1733 10.1816 44.3295 10.1191C44.4858 10.0527 44.6225 9.95312 44.7397 9.82031C44.8608 9.6875 44.9545 9.52148 45.0209 9.32227C45.0912 9.12305 45.1264 8.88281 45.1264 8.60156H47.1655C47.1655 9.09766 47.0873 9.56641 46.9311 10.0078C46.7748 10.4492 46.5307 10.8359 46.1987 11.168C45.8666 11.5 45.4448 11.7637 44.933 11.959C44.4213 12.1543 43.8139 12.252 43.1108 12.252C42.478 12.252 41.8784 12.166 41.312 11.9941C40.7495 11.8223 40.2573 11.5527 39.8354 11.1855C39.4174 10.8184 39.0854 10.3477 38.8393 9.77344C38.5971 9.19531 38.476 8.50195 38.476 7.69336C38.476 6.88477 38.5991 6.19336 38.8452 5.61914C39.0952 5.04102 39.4233 4.56836 39.8295 4.20117C40.2397 3.83398 40.7065 3.56445 41.2299 3.39258C41.7534 3.2207 42.2963 3.13477 42.8588 3.13477ZM48.6662 12V9.82617C49.0099 9.82617 49.256 9.78125 49.4045 9.69141C49.5529 9.59766 49.6271 9.42383 49.6271 9.16992V6.20508C49.6271 5.94727 49.5529 5.77344 49.4045 5.68359C49.256 5.58984 49.0099 5.54297 48.6662 5.54297V3.36914H54.0392V5.54297C53.6955 5.54297 53.4494 5.58984 53.3009 5.68359C53.1564 5.77344 53.0841 5.94727 53.0841 6.20508V9.16992C53.0841 9.42383 53.1564 9.59766 53.3009 9.69141C53.4494 9.78125 53.6955 9.82617 54.0392 9.82617V12H48.6662ZM59.9755 8.98828H58.1239L58.0419 9.24023C57.9794 9.4082 57.9833 9.54883 58.0536 9.66211C58.1239 9.77148 58.2723 9.82617 58.4989 9.82617H58.8329V12H55.1825V9.82617H55.4227C55.704 9.82617 55.8915 9.77148 55.9852 9.66211C56.0829 9.54883 56.1766 9.38477 56.2665 9.16992L57.4677 6.20508C57.5536 5.97852 57.5673 5.8125 57.5087 5.70703C57.454 5.59766 57.2841 5.54297 56.9989 5.54297H56.8759V3.36914H62.8993V5.54297H62.7821C62.493 5.54297 62.3192 5.59961 62.2606 5.71289C62.2059 5.82617 62.2235 5.99023 62.3134 6.20508L63.5145 9.16992C63.5614 9.2793 63.6024 9.375 63.6376 9.45703C63.6766 9.53516 63.7235 9.60352 63.7782 9.66211C63.8329 9.7168 63.9052 9.75781 63.995 9.78516C64.0887 9.8125 64.2079 9.82617 64.3524 9.82617H64.5927V12H59.2665V9.82617H59.5887C59.8114 9.82617 59.9598 9.77148 60.0341 9.66211C60.1122 9.54883 60.12 9.4082 60.0575 9.24023L59.9755 8.98828ZM58.4227 8.07422H59.6708L59.0848 6.27539H59.038L58.4227 8.07422ZM71.1148 5.54297C70.7711 5.54297 70.525 5.58984 70.3766 5.68359C70.232 5.77344 70.1598 5.94727 70.1598 6.20508V9.82617H71.3316C71.4918 9.82617 71.6266 9.81055 71.7359 9.7793C71.8453 9.74805 71.9313 9.68359 71.9938 9.58594C72.0563 9.48438 72.0992 9.34375 72.1227 9.16406C72.15 8.98438 72.1637 8.74609 72.1637 8.44922H74.2145V12H65.7418V9.82617C66.0855 9.82617 66.3316 9.78125 66.4801 9.69141C66.6285 9.59766 66.7027 9.42383 66.7027 9.16992V6.20508C66.7027 5.94727 66.6285 5.77344 66.4801 5.68359C66.3316 5.58984 66.0855 5.54297 65.7418 5.54297V3.36914H71.1148V5.54297Z" fill="white"/>
</g>
<g filter="url(#filter1_d)">
<path d="M17.7285 18.3691V20.543C17.3848 20.543 17.1582 20.5996 17.0488 20.7129C16.9434 20.8262 16.8906 20.9902 16.8906 21.2051V27H13.3691L10.3105 22.2129V24.2402C10.3105 24.4941 10.3848 24.6562 10.5332 24.7266C10.6816 24.793 10.9277 24.8262 11.2715 24.8262V27H7.24023V24.8262C7.58398 24.8262 7.83008 24.7812 7.97852 24.6914C8.12695 24.5977 8.20117 24.4238 8.20117 24.1699V21.2051C8.20117 20.9473 8.12695 20.7734 7.97852 20.6836C7.83008 20.5898 7.58398 20.543 7.24023 20.543V18.3691H11.8457L14.7754 22.957V21.2051C14.7754 20.9473 14.7207 20.7734 14.6113 20.6836C14.5059 20.5898 14.2812 20.543 13.9375 20.543V18.3691H17.7285ZM24.0445 24.8262C24.2046 24.8262 24.3374 24.8125 24.4429 24.7852C24.5523 24.7578 24.6382 24.707 24.7007 24.6328C24.7671 24.5547 24.812 24.4492 24.8355 24.3164C24.8589 24.1836 24.8706 24.0137 24.8706 23.8066H26.9214V27H18.5718V24.8262C18.9155 24.8262 19.1616 24.7812 19.3101 24.6914C19.4585 24.5977 19.5327 24.4238 19.5327 24.1699V21.2051C19.5327 20.9473 19.4585 20.7734 19.3101 20.6836C19.1616 20.5898 18.9155 20.543 18.5718 20.543V18.3691H26.9214V21.5625H24.8706C24.8706 21.3555 24.8589 21.1855 24.8355 21.0527C24.812 20.9199 24.7671 20.8164 24.7007 20.7422C24.6382 20.668 24.5523 20.6172 24.4429 20.5898C24.3374 20.5586 24.2046 20.543 24.0445 20.543H22.9898V22.1016H24.8589V23.1387H22.9898V24.8262H24.0445ZM37.2217 18.3691V21.8027H35.294C35.294 21.541 35.2862 21.3145 35.2705 21.123C35.2588 20.9277 35.2295 20.7715 35.1827 20.6543C35.1358 20.5332 35.0635 20.4453 34.9659 20.3906C34.8721 20.332 34.7452 20.3027 34.585 20.3027H34.2217V24.1699C34.2217 24.4238 34.2959 24.5977 34.4444 24.6914C34.5928 24.7812 34.8389 24.8262 35.1827 24.8262V27H29.8096V24.8262C30.1534 24.8262 30.3975 24.7812 30.542 24.6914C30.6905 24.5977 30.7647 24.4238 30.7647 24.1699V20.3027H30.4073C30.2471 20.3027 30.1182 20.332 30.0205 20.3906C29.9268 20.4453 29.8545 20.5332 29.8037 20.6543C29.7569 20.7715 29.7276 20.9277 29.7159 21.123C29.7041 21.3145 29.6983 21.541 29.6983 21.8027H27.7647V18.3691H37.2217ZM44.8853 23.8652L43.772 27H41.1646L38.9088 21.2051C38.8619 21.084 38.8189 20.9844 38.7798 20.9062C38.7408 20.8242 38.6861 20.7559 38.6158 20.7012C38.5494 20.6426 38.4634 20.6016 38.358 20.5781C38.2525 20.5547 38.1158 20.543 37.9478 20.543V18.3691H42.8463V20.543C42.6392 20.543 42.4908 20.5938 42.4009 20.6953C42.315 20.793 42.3033 20.9395 42.3658 21.1348L43.2213 23.9766H43.2681L44.0357 21.5508L43.9127 21.2051C43.8267 20.9707 43.7447 20.8027 43.6666 20.7012C43.5923 20.5957 43.4634 20.543 43.2798 20.543V18.3691H47.9205V20.543C47.6275 20.543 47.4459 20.5938 47.3755 20.6953C47.3091 20.793 47.3072 20.9395 47.3697 21.1348L48.1021 23.9766H48.149L49.0279 21.1348C49.149 20.7402 48.9244 20.543 48.3541 20.543V18.3691H51.7642V20.543C51.5963 20.543 51.4576 20.5547 51.3482 20.5781C51.2388 20.6016 51.1529 20.6406 51.0904 20.6953C51.0279 20.7461 50.9752 20.8145 50.9322 20.9004C50.8931 20.9824 50.8502 21.084 50.8033 21.2051L48.6529 27H46.0513L44.8853 23.8652ZM52.6602 22.6934C52.6602 21.9395 52.7833 21.2793 53.0294 20.7129C53.2794 20.1426 53.6309 19.666 54.0841 19.2832C54.5372 18.9004 55.0743 18.6133 55.6954 18.4219C56.3204 18.2305 57.0098 18.1348 57.7637 18.1348C58.5137 18.1348 59.2012 18.2305 59.8262 18.4219C60.4512 18.6133 60.9884 18.9004 61.4376 19.2832C61.8907 19.666 62.2403 20.1426 62.4864 20.7129C62.7364 21.2793 62.8614 21.9395 62.8614 22.6934C62.8614 23.4434 62.7364 24.1035 62.4864 24.6738C62.2403 25.2402 61.8907 25.7168 61.4376 26.1035C60.9884 26.4863 60.4512 26.7734 59.8262 26.9648C59.2012 27.1562 58.5137 27.252 57.7637 27.252C57.0098 27.252 56.3204 27.1562 55.6954 26.9648C55.0743 26.7734 54.5372 26.4863 54.0841 26.1035C53.6309 25.7168 53.2794 25.2402 53.0294 24.6738C52.7833 24.1035 52.6602 23.4434 52.6602 22.6934ZM56.5977 22.6934C56.5977 23.166 56.6153 23.5625 56.6505 23.8828C56.6856 24.1992 56.7462 24.457 56.8321 24.6562C56.922 24.8516 57.0411 24.9941 57.1895 25.084C57.338 25.1699 57.5294 25.2129 57.7637 25.2129C57.9864 25.2129 58.1739 25.1699 58.3262 25.084C58.4786 24.9941 58.5977 24.8516 58.6837 24.6562C58.7735 24.457 58.836 24.1992 58.8712 23.8828C58.9063 23.5625 58.9239 23.166 58.9239 22.6934C58.9239 22.2285 58.9063 21.834 58.8712 21.5098C58.836 21.1855 58.7735 20.9258 58.6837 20.7305C58.5977 20.5352 58.4786 20.3945 58.3262 20.3086C58.1739 20.2188 57.9864 20.1738 57.7637 20.1738C57.5294 20.1738 57.338 20.2188 57.1895 20.3086C57.0411 20.3945 56.922 20.5352 56.8321 20.7305C56.7462 20.9258 56.6856 21.1855 56.6505 21.5098C56.6153 21.834 56.5977 22.2285 56.5977 22.6934ZM63.8863 27V24.8262C64.2301 24.8262 64.4762 24.7812 64.6246 24.6914C64.773 24.5977 64.8473 24.4238 64.8473 24.1699V21.2051C64.8473 20.9473 64.773 20.7734 64.6246 20.6836C64.4762 20.5898 64.2301 20.543 63.8863 20.543V18.3691H70.0914C70.6656 18.3691 71.148 18.4258 71.5387 18.5391C71.9332 18.6523 72.2477 18.8145 72.482 19.0254C72.7203 19.2363 72.8883 19.4883 72.9859 19.7812C73.0875 20.0742 73.1383 20.4004 73.1383 20.7598C73.1383 21.416 72.9801 21.9414 72.6637 22.3359C72.3473 22.7266 71.8414 22.9375 71.1461 22.9688V23.0391C71.482 23.0625 71.7594 23.125 71.9781 23.2266C72.2008 23.3281 72.3746 23.4609 72.4996 23.625C72.6285 23.7852 72.7184 23.9805 72.7691 24.2109C72.8238 24.4375 72.8512 24.6953 72.8512 24.9844V25.2949C72.8512 25.3926 72.8766 25.4785 72.9273 25.5527C72.9781 25.623 73.0563 25.6582 73.1617 25.6582C73.275 25.6582 73.3551 25.623 73.402 25.5527C73.4488 25.4785 73.4723 25.3926 73.4723 25.2949V23.8066H74.1461V25.2949C74.1461 25.5762 74.1031 25.8359 74.0172 26.0742C73.9352 26.3086 73.7984 26.5137 73.607 26.6895C73.4156 26.8652 73.1637 27 72.8512 27.0938C72.5387 27.1914 72.1539 27.2402 71.6969 27.2402C71.2398 27.2402 70.8648 27.1895 70.5719 27.0879C70.2828 26.9902 70.0563 26.8535 69.8922 26.6777C69.7281 26.502 69.6129 26.2988 69.5465 26.0684C69.484 25.834 69.4527 25.5879 69.4527 25.3301V24.8789C69.4527 24.5664 69.4352 24.3145 69.4 24.123C69.3648 23.9277 69.3063 23.7773 69.2242 23.6719C69.1461 23.5625 69.0426 23.4902 68.9137 23.4551C68.7848 23.4199 68.6285 23.4023 68.4449 23.4023H68.3043V24.2402C68.3043 24.4473 68.3609 24.5977 68.4742 24.6914C68.5914 24.7812 68.7984 24.8262 69.0953 24.8262V27H63.8863ZM68.3043 22.3652H68.8199C69.148 22.3652 69.3727 22.2871 69.4938 22.1309C69.6188 21.9707 69.6813 21.75 69.6813 21.4688C69.6813 21.1406 69.6188 20.9043 69.4938 20.7598C69.3727 20.6152 69.148 20.543 68.8199 20.543H68.3043V22.3652ZM79.2843 21.9727L80.4445 21.252C80.589 21.1738 80.6827 21.0938 80.7257 21.0117C80.7726 20.9258 80.7843 20.8496 80.7609 20.7832C80.7413 20.7129 80.6905 20.6562 80.6085 20.6133C80.5304 20.5664 80.4405 20.543 80.339 20.543V18.3691H85.0675V20.543C84.8175 20.543 84.5987 20.5703 84.4112 20.625C84.2237 20.6758 84.0148 20.7695 83.7843 20.9062L82.5714 21.6211L84.5402 24.1699C84.6105 24.2715 84.6788 24.3633 84.7452 24.4453C84.8155 24.5234 84.8898 24.5918 84.9679 24.6504C85.0499 24.7051 85.1437 24.748 85.2491 24.7793C85.3585 24.8105 85.4933 24.8262 85.6534 24.8262V27H80.339V24.8262C80.507 24.8262 80.628 24.8027 80.7023 24.7559C80.7804 24.709 80.8292 24.6523 80.8487 24.5859C80.8683 24.5156 80.8663 24.4492 80.8429 24.3867C80.8195 24.3203 80.796 24.2715 80.7726 24.2402L79.9288 23.1855L79.2843 23.5781V24.2402C79.2843 24.3457 79.2882 24.4336 79.296 24.5039C79.3038 24.5742 79.3292 24.6348 79.3722 24.6855C79.4152 24.7324 79.4777 24.7676 79.5597 24.791C79.6456 24.8145 79.7609 24.8262 79.9054 24.8262V27H74.8663V24.8262C75.2101 24.8262 75.4562 24.7812 75.6046 24.6914C75.753 24.5977 75.8273 24.4238 75.8273 24.1699V21.2051C75.8273 20.9473 75.753 20.7734 75.6046 20.6836C75.4562 20.5898 75.2101 20.543 74.8663 20.543V18.3691H79.9054V20.543C79.7609 20.543 79.6456 20.5547 79.5597 20.5781C79.4777 20.6016 79.4152 20.6387 79.3722 20.6895C79.3292 20.7363 79.3038 20.7969 79.296 20.8711C79.2882 20.9414 79.2843 21.0293 79.2843 21.1348V21.9727Z" fill="black"/>
</g>
<defs>
<filter id="filter0_d" x="15.2988" y="3.13477" width="60.9156" height="13.1172" filterUnits="userSpaceOnUse">
<feFlood flood-opacity="0" result="BackgroundImageFix"/>
<feColorMatrix in="SourceAlpha" values="0 0 0 0 0 0 0 0 0 0 0 0 0 0 0 0 0 0 127 0" result="hardAlpha"/>
<feOffset dy="2"/>
<feGaussianBlur stdDeviation="1"/>
<feComposite in2="hardAlpha" operator="out"/>
<feColorMatrix  values="0 0 0 0 0 0 0 0 0 0 0 0 0 0 0 0 0 0 0.25 0"/>
<feBlend in2="BackgroundImageFix" result="effect1_dropShadow"/>
<feBlend in="SourceGraphic" in2="effect1_dropShadow" result="shape"/>
</filter>
<filter id="filter1_d" x="5.24023" y="18.1348" width="82.4132" height="13.1172" filterUnits="userSpaceOnUse" color-interpolation-filters="sRGB">
<feFlood flood-opacity="0" result="BackgroundImageFix"/>
<feColorMatrix in="SourceAlpha" values="0 0 0 0 0 0 0 0 0 0 0 0 0 0 0 0 0 0 127 0" result="hardAlpha"/>
<feOffset dy="2"/>
<feGaussianBlur stdDeviation="1"/>
<feComposite in2="hardAlpha" operator="out"/>
<feColorMatrix values="0 0 0 0 0 0 0 0 0 0 0 0 0 0 0 0 0 0 0.25 0"/>
<feBlend in2="BackgroundImageFix" result="effect1_dropShadow"/>
<feBlend in="SourceGraphic" in2="effect1_dropShadow" result="shape"/>
</filter>
</defs>
</svg>
